<svg width="250" height="77" viewBox="0 0 250 77" fill="none" xmlns="http://www.w3.org/2000/svg">
<g clip-path="url(#clip0_660_2449)">
<path d="M238.461 0.960938H11.5379C5.69639 0.960938 0.960938 5.69639 0.960938 11.5379V65.384C0.960938 71.2255 5.69639 75.9609 11.5379 75.9609H238.461C244.302 75.9609 249.038 71.2255 249.038 65.384V11.5379C249.038 5.69639 244.302 0.960938 238.461 0.960938Z" fill="black"/>
<path fill-rule="evenodd" clip-rule="evenodd" d="M49.554 39.5787C49.5959 36.3162 51.3063 33.3027 54.0859 31.5939C52.3244 29.0783 49.48 27.5406 46.4105 27.4447C43.1813 27.1056 40.0505 29.377 38.405 29.377C36.7275 29.377 34.1938 27.4783 31.4656 27.5345C27.8757 27.6504 24.6102 29.6418 22.8638 32.7802C19.1445 39.2195 21.9188 48.6831 25.4815 53.8881C27.264 56.437 29.3473 59.2839 32.073 59.1829C34.7405 59.0724 35.7367 57.482 38.9565 57.482C42.1465 57.482 43.0811 59.1829 45.8623 59.1187C48.7246 59.0724 50.5279 56.5587 52.2479 53.9858C53.5286 52.1697 54.5142 50.1625 55.1679 48.0387C51.7684 46.6008 49.558 43.2699 49.554 39.5787Z" fill="white"/>
<path fill-rule="evenodd" clip-rule="evenodd" d="M44.302 24.0213C45.8626 22.1478 46.6315 19.7397 46.4453 17.3086C44.0611 17.559 41.8586 18.6986 40.2769 20.5001C38.7149 22.2776 37.9238 24.6032 38.0774 26.9644C40.4938 26.9892 42.7878 25.9046 44.302 24.0213Z" fill="white"/>
<path d="M78.2383 15.5273H83.3614C84.3075 15.5273 85.1267 15.6889 85.8191 16.012C86.5114 16.335 87.0767 16.7793 87.5152 17.3447C87.9537 17.8985 88.2767 18.5504 88.4844 19.3004C88.7037 20.0504 88.8133 20.8523 88.8133 21.7062C88.8133 22.56 88.7037 23.362 88.4844 24.112C88.2767 24.862 87.9537 25.5197 87.5152 26.085C87.0767 26.6389 86.5114 27.0773 85.8191 27.4004C85.1267 27.7235 84.3075 27.885 83.3614 27.885H78.2383V15.5273ZM80.4017 26.1197H82.5306C83.3729 26.1197 84.0594 26.01 84.5902 25.7908C85.1325 25.56 85.5537 25.2485 85.8537 24.8562C86.1652 24.4523 86.3729 23.985 86.4767 23.4543C86.5921 22.912 86.6498 22.3293 86.6498 21.7062C86.6498 21.0831 86.5921 20.5062 86.4767 19.9754C86.3729 19.4331 86.1652 18.9658 85.8537 18.5735C85.5537 18.1697 85.1325 17.8581 84.5902 17.6389C84.0594 17.4081 83.3729 17.2927 82.5306 17.2927H80.4017V26.1197ZM94.9 28.1273C94.1846 28.1273 93.5442 28.012 92.9789 27.7812C92.425 27.5389 91.9519 27.21 91.5596 26.7947C91.1789 26.3793 90.8846 25.8831 90.6769 25.3062C90.4808 24.7293 90.3827 24.0947 90.3827 23.4023C90.3827 22.7216 90.4808 22.0927 90.6769 21.5158C90.8846 20.9389 91.1789 20.4427 91.5596 20.0273C91.9519 19.612 92.425 19.2889 92.9789 19.0581C93.5442 18.8158 94.1846 18.6947 94.9 18.6947C95.6154 18.6947 96.25 18.8158 96.8039 19.0581C97.3692 19.2889 97.8423 19.612 98.2231 20.0273C98.6154 20.4427 98.9096 20.9389 99.1058 21.5158C99.3135 22.0927 99.4173 22.7216 99.4173 23.4023C99.4173 24.0947 99.3135 24.7293 99.1058 25.3062C98.9096 25.8831 98.6154 26.3793 98.2231 26.7947C97.8423 27.21 97.3692 27.5389 96.8039 27.7812C96.25 28.012 95.6154 28.1273 94.9 28.1273ZM94.9 26.5697C95.3385 26.5697 95.7192 26.4773 96.0423 26.2927C96.3654 26.1081 96.6308 25.8658 96.8385 25.5658C97.0462 25.2658 97.1962 24.9312 97.2885 24.562C97.3923 24.1812 97.4442 23.7947 97.4442 23.4023C97.4442 23.0216 97.3923 22.6408 97.2885 22.26C97.1962 21.8793 97.0462 21.5447 96.8385 21.2562C96.6308 20.9562 96.3654 20.7139 96.0423 20.5293C95.7192 20.3447 95.3385 20.2523 94.9 20.2523C94.4616 20.2523 94.0808 20.3447 93.7577 20.5293C93.4346 20.7139 93.1692 20.9562 92.9616 21.2562C92.7539 21.5447 92.5981 21.8793 92.4942 22.26C92.4019 22.6408 92.3558 23.0216 92.3558 23.4023C92.3558 23.7947 92.4019 24.1812 92.4942 24.562C92.5981 24.9312 92.7539 25.2658 92.9616 25.5658C93.1692 25.8658 93.4346 26.1081 93.7577 26.2927C94.0808 26.4773 94.4616 26.5697 94.9 26.5697ZM100.59 18.937H102.685L104.433 25.6177H104.467L106.146 18.937H108.137L109.746 25.6177H109.781L111.598 18.937H113.606L110.802 27.885H108.777L107.115 21.2389H107.081L105.437 27.885H103.36L100.59 18.937ZM115.221 18.937H117.09V20.2523L117.125 20.287C117.425 19.7908 117.817 19.4043 118.302 19.1273C118.786 18.8389 119.323 18.6947 119.911 18.6947C120.892 18.6947 121.665 18.9485 122.231 19.4562C122.796 19.9639 123.079 20.7254 123.079 21.7408V27.885H121.106V22.26C121.083 21.5562 120.933 21.0485 120.656 20.737C120.379 20.4139 119.946 20.2523 119.358 20.2523C119.023 20.2523 118.723 20.3158 118.458 20.4427C118.192 20.5581 117.967 20.7254 117.783 20.9447C117.598 21.1523 117.454 21.4004 117.35 21.6889C117.246 21.9773 117.194 22.2831 117.194 22.6062V27.885H115.221V18.937ZM125.557 15.5273H127.53V27.885H125.557V15.5273ZM134.128 28.1273C133.413 28.1273 132.773 28.012 132.207 27.7812C131.653 27.5389 131.18 27.21 130.788 26.7947C130.407 26.3793 130.113 25.8831 129.905 25.3062C129.709 24.7293 129.611 24.0947 129.611 23.4023C129.611 22.7216 129.709 22.0927 129.905 21.5158C130.113 20.9389 130.407 20.4427 130.788 20.0273C131.18 19.612 131.653 19.2889 132.207 19.0581C132.773 18.8158 133.413 18.6947 134.128 18.6947C134.844 18.6947 135.478 18.8158 136.032 19.0581C136.598 19.2889 137.071 19.612 137.451 20.0273C137.844 20.4427 138.138 20.9389 138.334 21.5158C138.542 22.0927 138.646 22.7216 138.646 23.4023C138.646 24.0947 138.542 24.7293 138.334 25.3062C138.138 25.8831 137.844 26.3793 137.451 26.7947C137.071 27.21 136.598 27.5389 136.032 27.7812C135.478 28.012 134.844 28.1273 134.128 28.1273ZM134.128 26.5697C134.567 26.5697 134.948 26.4773 135.271 26.2927C135.594 26.1081 135.859 25.8658 136.067 25.5658C136.274 25.2658 136.424 24.9312 136.517 24.562C136.621 24.1812 136.673 23.7947 136.673 23.4023C136.673 23.0216 136.621 22.6408 136.517 22.26C136.424 21.8793 136.274 21.5447 136.067 21.2562C135.859 20.9562 135.594 20.7139 135.271 20.5293C134.948 20.3447 134.567 20.2523 134.128 20.2523C133.69 20.2523 133.309 20.3447 132.986 20.5293C132.663 20.7139 132.398 20.9562 132.19 21.2562C131.982 21.5447 131.826 21.8793 131.723 22.26C131.63 22.6408 131.584 23.0216 131.584 23.4023C131.584 23.7947 131.63 24.1812 131.723 24.562C131.826 24.9312 131.982 25.2658 132.19 25.5658C132.398 25.8658 132.663 26.1081 132.986 26.2927C133.309 26.4773 133.69 26.5697 134.128 26.5697ZM148.126 25.8947C148.126 26.137 148.155 26.31 148.213 26.4139C148.282 26.5177 148.409 26.5697 148.594 26.5697C148.651 26.5697 148.721 26.5697 148.801 26.5697C148.882 26.5697 148.974 26.5581 149.078 26.535V27.9023C149.009 27.9254 148.917 27.9485 148.801 27.9716C148.698 28.0062 148.588 28.035 148.473 28.0581C148.357 28.0812 148.242 28.0985 148.126 28.11C148.011 28.1216 147.913 28.1273 147.832 28.1273C147.428 28.1273 147.094 28.0466 146.828 27.885C146.563 27.7235 146.39 27.4408 146.309 27.037C145.917 27.4177 145.432 27.6947 144.855 27.8677C144.29 28.0408 143.742 28.1273 143.211 28.1273C142.807 28.1273 142.421 28.0697 142.051 27.9543C141.682 27.8504 141.353 27.6947 141.065 27.487C140.788 27.2677 140.563 26.9966 140.39 26.6735C140.228 26.3389 140.148 25.9523 140.148 25.5139C140.148 24.96 140.246 24.51 140.442 24.1639C140.649 23.8177 140.915 23.5466 141.238 23.3504C141.573 23.1543 141.942 23.0158 142.346 22.935C142.761 22.8427 143.176 22.7735 143.592 22.7273C143.949 22.6581 144.29 22.612 144.613 22.5889C144.936 22.5543 145.219 22.5023 145.461 22.4331C145.715 22.3639 145.911 22.26 146.049 22.1216C146.199 21.9716 146.274 21.7523 146.274 21.4639C146.274 21.21 146.211 21.0023 146.084 20.8408C145.969 20.6793 145.819 20.5581 145.634 20.4773C145.461 20.385 145.265 20.3273 145.046 20.3043C144.826 20.2696 144.619 20.2523 144.423 20.2523C143.869 20.2523 143.413 20.3677 143.055 20.5985C142.698 20.8293 142.496 21.187 142.449 21.6716H140.476C140.511 21.0947 140.649 20.6158 140.892 20.235C141.134 19.8543 141.44 19.5485 141.809 19.3177C142.19 19.087 142.617 18.9254 143.09 18.8331C143.563 18.7408 144.048 18.6947 144.544 18.6947C144.982 18.6947 145.415 18.7408 145.842 18.8331C146.269 18.9254 146.649 19.0754 146.984 19.2831C147.33 19.4908 147.607 19.762 147.815 20.0966C148.023 20.4197 148.126 20.8177 148.126 21.2908V25.8947ZM146.153 23.4023C145.853 23.5985 145.484 23.7197 145.046 23.7658C144.607 23.8004 144.169 23.8581 143.73 23.9389C143.523 23.9735 143.321 24.0254 143.124 24.0947C142.928 24.1523 142.755 24.2389 142.605 24.3543C142.455 24.4581 142.334 24.6023 142.242 24.787C142.161 24.96 142.121 25.1735 142.121 25.4273C142.121 25.6466 142.184 25.8312 142.311 25.9812C142.438 26.1312 142.588 26.2523 142.761 26.3447C142.946 26.4254 143.142 26.4831 143.349 26.5177C143.569 26.5523 143.765 26.5697 143.938 26.5697C144.157 26.5697 144.394 26.5408 144.648 26.4831C144.901 26.4254 145.138 26.3273 145.357 26.1889C145.588 26.0504 145.778 25.8773 145.928 25.6697C146.078 25.4504 146.153 25.185 146.153 24.8735V23.4023ZM159.024 27.885H157.155V26.6735H157.121C156.855 27.1927 156.469 27.5677 155.961 27.7985C155.453 28.0177 154.917 28.1273 154.351 28.1273C153.648 28.1273 153.03 28.0062 152.499 27.7639C151.98 27.51 151.548 27.1697 151.201 26.7427C150.855 26.3158 150.596 25.8139 150.423 25.237C150.249 24.6485 150.163 24.0197 150.163 23.3504C150.163 22.5427 150.273 21.8447 150.492 21.2562C150.711 20.6677 150.999 20.1831 151.357 19.8023C151.726 19.4216 152.142 19.1447 152.603 18.9716C153.076 18.787 153.555 18.6947 154.04 18.6947C154.317 18.6947 154.599 18.7235 154.888 18.7812C155.176 18.8273 155.453 18.9081 155.719 19.0235C155.984 19.1389 156.226 19.2889 156.446 19.4735C156.676 19.6466 156.867 19.8543 157.017 20.0966H157.051V15.5273H159.024V27.885ZM152.136 23.5062C152.136 23.887 152.182 24.262 152.274 24.6312C152.378 25.0004 152.528 25.3293 152.724 25.6177C152.932 25.9062 153.192 26.137 153.503 26.31C153.815 26.4831 154.184 26.5697 154.611 26.5697C155.049 26.5697 155.424 26.4773 155.736 26.2927C156.059 26.1081 156.319 25.8658 156.515 25.5658C156.723 25.2658 156.873 24.9312 156.965 24.562C157.069 24.1812 157.121 23.7947 157.121 23.4023C157.121 22.41 156.896 21.637 156.446 21.0831C156.007 20.5293 155.407 20.2523 154.646 20.2523C154.184 20.2523 153.792 20.3504 153.469 20.5466C153.157 20.7312 152.898 20.9793 152.69 21.2908C152.494 21.5908 152.349 21.937 152.257 22.3293C152.176 22.71 152.136 23.1023 152.136 23.5062ZM170.788 28.1273C170.072 28.1273 169.432 28.012 168.866 27.7812C168.313 27.5389 167.839 27.21 167.447 26.7947C167.066 26.3793 166.772 25.8831 166.564 25.3062C166.368 24.7293 166.27 24.0947 166.27 23.4023C166.27 22.7216 166.368 22.0927 166.564 21.5158C166.772 20.9389 167.066 20.4427 167.447 20.0273C167.839 19.612 168.313 19.2889 168.866 19.0581C169.432 18.8158 170.072 18.6947 170.788 18.6947C171.503 18.6947 172.138 18.8158 172.691 19.0581C173.257 19.2889 173.73 19.612 174.111 20.0273C174.503 20.4427 174.797 20.9389 174.993 21.5158C175.201 22.0927 175.305 22.7216 175.305 23.4023C175.305 24.0947 175.201 24.7293 174.993 25.3062C174.797 25.8831 174.503 26.3793 174.111 26.7947C173.73 27.21 173.257 27.5389 172.691 27.7812C172.138 28.012 171.503 28.1273 170.788 28.1273ZM170.788 26.5697C171.226 26.5697 171.607 26.4773 171.93 26.2927C172.253 26.1081 172.518 25.8658 172.726 25.5658C172.934 25.2658 173.084 24.9312 173.176 24.562C173.28 24.1812 173.332 23.7947 173.332 23.4023C173.332 23.0216 173.28 22.6408 173.176 22.26C173.084 21.8793 172.934 21.5447 172.726 21.2562C172.518 20.9562 172.253 20.7139 171.93 20.5293C171.607 20.3447 171.226 20.2523 170.788 20.2523C170.349 20.2523 169.968 20.3447 169.645 20.5293C169.322 20.7139 169.057 20.9562 168.849 21.2562C168.641 21.5447 168.486 21.8793 168.382 22.26C168.289 22.6408 168.243 23.0216 168.243 23.4023C168.243 23.7947 168.289 24.1812 168.382 24.562C168.486 24.9312 168.641 25.2658 168.849 25.5658C169.057 25.8658 169.322 26.1081 169.645 26.2927C169.968 26.4773 170.349 26.5697 170.788 26.5697ZM177.291 18.937H179.161V20.2523L179.195 20.287C179.495 19.7908 179.888 19.4043 180.372 19.1273C180.857 18.8389 181.393 18.6947 181.982 18.6947C182.963 18.6947 183.736 18.9485 184.301 19.4562C184.866 19.9639 185.149 20.7254 185.149 21.7408V27.885H183.176V22.26C183.153 21.5562 183.003 21.0485 182.726 20.737C182.449 20.4139 182.016 20.2523 181.428 20.2523C181.093 20.2523 180.793 20.3158 180.528 20.4427C180.263 20.5581 180.038 20.7254 179.853 20.9447C179.668 21.1523 179.524 21.4004 179.42 21.6889C179.316 21.9773 179.264 22.2831 179.264 22.6062V27.885H177.291V18.937ZM191.839 18.937H193.327V16.2543H195.3V18.937H197.083V20.4081H195.3V25.185C195.3 25.3927 195.306 25.5716 195.317 25.7216C195.34 25.8716 195.381 25.9985 195.438 26.1023C195.508 26.2062 195.606 26.287 195.733 26.3447C195.859 26.3908 196.033 26.4139 196.252 26.4139C196.39 26.4139 196.529 26.4139 196.667 26.4139C196.806 26.4023 196.944 26.3793 197.083 26.3447V27.8677C196.863 27.8908 196.65 27.9139 196.442 27.937C196.234 27.96 196.021 27.9716 195.802 27.9716C195.283 27.9716 194.861 27.9254 194.538 27.8331C194.227 27.7293 193.979 27.585 193.794 27.4004C193.621 27.2043 193.5 26.962 193.431 26.6735C193.373 26.385 193.338 26.0562 193.327 25.687V20.4081H191.839V18.937ZM198.848 15.5273H200.821V20.1139H200.856C201.098 19.71 201.456 19.3754 201.929 19.11C202.413 18.8331 202.95 18.6947 203.538 18.6947C204.519 18.6947 205.292 18.9485 205.858 19.4562C206.423 19.9639 206.706 20.7254 206.706 21.7408V27.885H204.733V22.26C204.709 21.5562 204.559 21.0485 204.283 20.737C204.006 20.4139 203.573 20.2523 202.984 20.2523C202.65 20.2523 202.35 20.3158 202.084 20.4427C201.819 20.5581 201.594 20.7254 201.409 20.9447C201.225 21.1523 201.081 21.4004 200.977 21.6889C200.873 21.9773 200.821 22.2831 200.821 22.6062V27.885H198.848V15.5273ZM215.277 22.6235C215.254 22.312 215.184 22.012 215.069 21.7235C214.965 21.435 214.815 21.187 214.619 20.9793C214.434 20.76 214.204 20.587 213.927 20.46C213.661 20.3216 213.361 20.2523 213.027 20.2523C212.681 20.2523 212.363 20.3158 212.075 20.4427C211.798 20.5581 211.556 20.7254 211.348 20.9447C211.152 21.1523 210.99 21.4004 210.863 21.6889C210.748 21.9773 210.684 22.2889 210.673 22.6235H215.277ZM210.673 23.9216C210.673 24.2677 210.719 24.6023 210.811 24.9254C210.915 25.2485 211.065 25.5312 211.261 25.7735C211.458 26.0158 211.706 26.212 212.006 26.362C212.306 26.5004 212.663 26.5697 213.079 26.5697C213.656 26.5697 214.117 26.4485 214.463 26.2062C214.821 25.9523 215.086 25.5773 215.259 25.0812H217.129C217.025 25.5658 216.846 25.9985 216.592 26.3793C216.338 26.76 216.033 27.0831 215.675 27.3485C215.317 27.6023 214.913 27.7927 214.463 27.9197C214.025 28.0581 213.563 28.1273 213.079 28.1273C212.375 28.1273 211.752 28.012 211.209 27.7812C210.667 27.5504 210.206 27.2273 209.825 26.812C209.456 26.3966 209.173 25.9004 208.977 25.3235C208.792 24.7466 208.7 24.112 208.7 23.4197C208.7 22.785 208.798 22.185 208.994 21.6197C209.202 21.0427 209.49 20.5408 209.859 20.1139C210.24 19.6754 210.696 19.3293 211.227 19.0754C211.758 18.8216 212.358 18.6947 213.027 18.6947C213.731 18.6947 214.359 18.8447 214.913 19.1447C215.479 19.4331 215.946 19.8197 216.315 20.3043C216.684 20.7889 216.95 21.3485 217.111 21.9831C217.284 22.6062 217.331 23.2523 217.25 23.9216H210.673Z" fill="white"/>
<path d="M109.46 42.2619C113.879 42.2619 116.792 45.755 116.792 51.1506C116.792 56.5612 113.896 60.0373 109.526 60.0373C107.267 60.1554 105.139 58.9723 104.048 56.9912H103.965V65.615H100.391V42.4441H103.851V45.34H103.916C105.056 43.3712 107.186 42.1887 109.46 42.2619ZM128.623 42.2619C133.042 42.2619 135.955 45.755 135.955 51.1506C135.955 56.5612 133.059 60.0373 128.689 60.0373C126.43 60.1554 124.302 58.9723 123.211 56.9912H123.128V65.615H119.554V42.4441H123.014V45.34H123.079C124.219 43.3712 126.349 42.1887 128.623 42.2619ZM154.281 35.5762C159.327 35.5762 162.786 38.4064 162.903 42.5267H159.295C159.079 40.1435 157.109 38.705 154.23 38.705C151.351 38.705 149.381 40.1604 149.381 42.2789C149.381 43.9671 150.639 44.9606 153.717 45.7212L156.348 46.3671C161.248 47.5258 163.284 49.4941 163.284 52.9871C163.284 57.4548 159.725 60.2531 154.065 60.2531C148.769 60.2531 145.193 57.5206 144.962 53.2012L148.62 53.2014C148.885 55.5694 151.186 57.1244 154.329 57.1244C157.342 57.1244 159.509 55.5694 159.509 53.4341C159.509 51.5806 158.202 50.4706 155.107 49.71L152.012 48.9644C147.627 47.9052 145.591 45.8544 145.591 42.5267C145.591 38.4064 149.182 35.5762 154.281 35.5762ZM184.483 42.23C189.531 42.23 192.743 45.6723 192.743 51.1506C192.743 56.6437 189.548 60.0712 184.483 60.0712C179.42 60.0712 176.225 56.6437 176.225 51.1506C176.225 45.6725 179.452 42.23 184.483 42.23ZM213.422 42.23C218.239 42.23 221.27 45.5391 221.27 50.8181V52.0425H208.972V52.2587C208.856 53.5548 209.305 54.8379 210.201 55.7814C211.097 56.725 212.355 57.2381 213.656 57.1902C215.389 57.3527 217.026 56.3568 217.676 54.7414H221.07C220.589 57.9019 217.51 60.0712 213.574 60.0712C208.508 60.0712 205.364 56.6775 205.364 51.2331C205.364 45.7719 208.526 42.23 213.422 42.23ZM170.997 38.3239V42.4441H174.308V45.2742H170.997V54.8727C170.997 56.3639 171.66 57.0587 173.115 57.0587C173.508 57.0519 173.901 57.0242 174.291 56.976V59.7892C173.636 59.9116 172.971 59.9669 172.306 59.9546C168.781 59.9546 167.406 58.6306 167.406 55.2539V45.2742H164.875V42.4441H167.406V38.3239H170.997ZM89.5496 35.9744L98.1715 59.8552H94.2501L92.0661 53.4004H82.9634L80.7775 59.8552H76.9219L85.5438 35.9744H89.5496ZM203.368 42.2619C203.78 42.2606 204.191 42.3052 204.593 42.3952V45.7381C204.072 45.5793 203.53 45.5064 202.987 45.5221C201.935 45.4796 200.92 45.8983 200.203 46.6685C199.487 47.4385 199.143 48.4831 199.262 49.5279V59.855H195.689V42.4441H199.097V45.4075H199.18C199.655 43.4998 201.403 42.1869 203.368 42.2619ZM184.483 45.1748C181.587 45.1748 179.867 47.4096 179.867 51.1506C179.867 54.9235 181.587 57.1244 184.483 57.1244C187.379 57.1244 189.101 54.9235 189.101 51.1506C189.101 47.3927 187.379 45.1748 184.483 45.1748ZM108.517 45.3081C105.787 45.3081 103.95 47.6744 103.95 51.1506C103.95 54.6587 105.787 57.0081 108.517 57.0081C111.297 57.0081 113.119 54.7075 113.119 51.1506C113.119 47.6256 111.297 45.3081 108.517 45.3081ZM127.681 45.3081C124.95 45.3081 123.113 47.6744 123.113 51.1506C123.113 54.6587 124.95 57.0081 127.681 57.0081C130.46 57.0081 132.282 54.7075 132.282 51.1506C132.282 47.6256 130.46 45.3081 127.681 45.3081ZM87.5646 39.9464H87.4651L83.9061 50.4219H91.1215L87.5646 39.9464ZM213.422 45.126C212.247 45.1189 211.118 45.5817 210.285 46.4116C209.453 47.2414 208.985 48.3694 208.989 49.5448H217.693C217.758 48.3802 217.333 47.2412 216.524 46.4023C215.712 45.5635 214.589 45.1008 213.422 45.126Z" fill="white"/>
<path d="M238.461 0.960938H11.5379C5.69639 0.960938 0.960938 5.69639 0.960938 11.5379V65.384C0.960938 71.2255 5.69639 75.9609 11.5379 75.9609H238.461C244.302 75.9609 249.038 71.2255 249.038 65.384V11.5379C249.038 5.69639 244.302 0.960938 238.461 0.960938Z" stroke="#A6A6A6"/>
</g>
<defs>
<clipPath id="clip0_660_2449">
<rect width="250" height="76.9231" fill="white"/>
</clipPath>
</defs>
</svg>
