<svg width="250" height="77" viewBox="0 0 250 77" fill="none" xmlns="http://www.w3.org/2000/svg">
<g clip-path="url(#clip0_660_2428)">
<path d="M238.461 0.960938H11.5379C5.69639 0.960938 0.960938 5.69639 0.960938 11.5379V65.384C0.960938 71.2255 5.69639 75.9609 11.5379 75.9609H238.461C244.302 75.9609 249.038 71.2255 249.038 65.384V11.5379C249.038 5.69639 244.302 0.960938 238.461 0.960938Z" fill="black"/>
<path fill-rule="evenodd" clip-rule="evenodd" d="M18.1424 14.5135C17.5828 15.1058 17.2539 16.0231 17.2539 17.2135V59.7096C17.2539 60.9 17.5828 61.8173 18.1424 62.4096L18.2847 62.5481L42.0905 38.7423V38.1808L18.2847 14.375L18.1424 14.5135Z" fill="#00D7FE"/>
<mask id="mask0_660_2428" style="mask-type:alpha" maskUnits="userSpaceOnUse" x="42" y="30" width="20" height="17">
<path d="M50.0225 46.6807L42.0898 38.7422V38.1807L50.0264 30.2441L59.6072 35.6864C62.2918 37.2134 62.2918 39.7095 59.6072 41.2345L50.2052 46.5768L50.0225 46.6807Z" fill="white"/>
</mask>
<g mask="url(#mask0_660_2428)">
<path fill-rule="evenodd" clip-rule="evenodd" d="M50.0225 46.6807L42.0898 38.7422V38.1807L50.0264 30.2441L59.6072 35.6864C62.2918 37.2134 62.2918 39.7095 59.6072 41.2345L50.2052 46.5768L50.0225 46.6807Z" fill="url(#paint0_linear_660_2428)"/>
</g>
<mask id="mask1_660_2428" style="mask-type:alpha" maskUnits="userSpaceOnUse" x="18" y="38" width="33" height="26">
<path d="M50.208 46.5763L42.0927 38.4609L18.1445 62.409C19.0311 63.3456 20.4927 63.4609 22.1388 62.5263L50.208 46.5763Z" fill="white"/>
</mask>
<g mask="url(#mask1_660_2428)">
<path fill-rule="evenodd" clip-rule="evenodd" d="M50.208 46.5763L42.0927 38.4609L18.1445 62.409C19.0311 63.3456 20.4927 63.4609 22.1388 62.5263L50.208 46.5763Z" fill="url(#paint1_linear_660_2428)"/>
</g>
<mask id="mask2_660_2428" style="mask-type:alpha" maskUnits="userSpaceOnUse" x="18" y="13" width="33" height="26">
<path d="M50.208 30.3458L22.1388 14.3957C20.4927 13.4611 19.0311 13.5765 18.1445 14.513L42.0927 38.4612L50.208 30.3458Z" fill="white"/>
</mask>
<g mask="url(#mask2_660_2428)">
<path fill-rule="evenodd" clip-rule="evenodd" d="M50.208 30.3458L22.1388 14.3957C20.4927 13.4611 19.0311 13.5765 18.1445 14.513L42.0927 38.4612L50.208 30.3458Z" fill="url(#paint2_linear_660_2428)"/>
</g>
<path fill-rule="evenodd" clip-rule="evenodd" d="M199.797 59.5248H203.386V35.4845H199.797V59.5248ZM232.119 44.1441L228.005 54.5672H227.882L223.613 44.1441H219.747L226.149 58.7114L222.499 66.8152H226.244L236.109 44.1441H232.119ZM211.769 56.7941C210.592 56.7941 208.953 56.2075 208.953 54.7537C208.953 52.8979 210.995 52.1864 212.757 52.1864C214.336 52.1864 215.076 52.5268 216.036 52.9902C215.757 55.2172 213.84 56.7941 211.769 56.7941ZM212.201 43.6191C209.603 43.6191 206.913 44.7633 205.799 47.2999L208.984 48.6287C209.665 47.2999 210.932 46.8652 212.263 46.8652C214.119 46.8652 216.005 47.9787 216.036 49.9595V50.2056C215.386 49.8345 213.995 49.2787 212.294 49.2787C208.861 49.2787 205.365 51.1652 205.365 54.6902C205.365 57.9075 208.18 59.9806 211.334 59.9806C213.747 59.9806 215.076 58.8979 215.913 57.6287H216.036V59.4845H219.499V50.2691C219.499 45.9998 216.315 43.6191 212.201 43.6191ZM190.024 47.071H184.92V38.8306H190.024C192.707 38.8306 194.23 41.0518 194.23 42.9498C194.23 44.8133 192.707 47.071 190.024 47.071ZM189.932 35.4845H181.334V59.5248H184.92V50.4172H189.932C193.909 50.4172 197.819 47.5364 197.819 42.9498C197.819 38.3633 193.909 35.4845 189.932 35.4845ZM143.045 56.7979C140.567 56.7979 138.492 54.7229 138.492 51.8729C138.492 48.9922 140.567 46.8845 143.045 46.8845C145.494 46.8845 147.413 48.9922 147.413 51.8729C147.413 54.7229 145.494 56.7979 143.045 56.7979ZM147.165 45.4902H147.042C146.236 44.5306 144.688 43.6633 142.736 43.6633C138.645 43.6633 134.897 47.2556 134.897 51.8729C134.897 56.4575 138.645 60.021 142.736 60.021C144.688 60.021 146.236 59.1537 147.042 58.1614H147.165V59.3383C147.165 62.4691 145.494 64.1422 142.797 64.1422C140.597 64.1422 139.234 62.5614 138.676 61.2287L135.547 62.5306C136.445 64.6998 138.832 67.3633 142.797 67.3633C147.011 67.3633 150.574 64.8845 150.574 58.8441V44.1575H147.165V45.4902ZM153.053 59.5248H156.647V35.4825H153.053V59.5248ZM161.944 51.5941C161.851 48.4345 164.392 46.8229 166.219 46.8229C167.645 46.8229 168.853 47.5345 169.255 48.5575L161.944 51.5941ZM173.097 48.8672C172.417 47.0402 170.34 43.6633 166.095 43.6633C161.882 43.6633 158.382 46.9768 158.382 51.8422C158.382 56.4268 161.851 60.021 166.497 60.021C170.247 60.021 172.417 57.7287 173.315 56.396L170.526 54.5364C169.597 55.8999 168.326 56.7979 166.497 56.7979C164.67 56.7979 163.369 55.9614 162.532 54.321L173.469 49.7979L173.097 48.8672ZM85.9666 46.1729V49.6422H94.2685C94.0204 51.5941 93.3704 53.0191 92.38 54.0114C91.1704 55.2191 89.28 56.5499 85.9666 56.5499C80.855 56.5499 76.857 52.4306 76.857 47.3191C76.857 42.2056 80.855 38.0864 85.9666 38.0864C88.7243 38.0864 90.7377 39.171 92.2243 40.5652L94.6724 38.1172C92.5954 36.1345 89.8397 34.6152 85.9666 34.6152C78.9647 34.6152 73.0781 40.3172 73.0781 47.3191C73.0781 54.321 78.9647 60.021 85.9666 60.021C89.7454 60.021 92.5954 58.7825 94.8262 56.4575C97.1185 54.1652 97.832 50.9441 97.832 48.3402C97.832 47.5345 97.7704 46.7922 97.6454 46.1729H85.9666ZM107.272 56.7979C104.794 56.7979 102.655 54.7537 102.655 51.8422C102.655 48.8979 104.794 46.8845 107.272 46.8845C109.749 46.8845 111.888 48.8979 111.888 51.8422C111.888 54.7537 109.749 56.7979 107.272 56.7979ZM107.272 43.6633C102.747 43.6633 99.0608 47.1018 99.0608 51.8422C99.0608 56.5499 102.747 60.021 107.272 60.021C111.795 60.021 115.482 56.5499 115.482 51.8422C115.482 47.1018 111.795 43.6633 107.272 43.6633ZM125.182 56.7979C122.703 56.7979 120.565 54.7537 120.565 51.8422C120.565 48.8979 122.703 46.8845 125.182 46.8845C127.661 46.8845 129.797 48.8979 129.797 51.8422C129.797 54.7537 127.661 56.7979 125.182 56.7979ZM125.182 43.6633C120.659 43.6633 116.972 47.1018 116.972 51.8422C116.972 56.5499 120.659 60.021 125.182 60.021C129.705 60.021 133.392 56.5499 133.392 51.8422C133.392 47.1018 129.705 43.6633 125.182 43.6633Z" fill="#FFFFFE"/>
<path d="M83.6 20.796V25.3002C83.4478 25.5256 83.2055 25.7793 82.8732 26.061C82.5407 26.337 82.0815 26.5793 81.4957 26.7877C80.9153 26.9906 80.1659 27.092 79.2476 27.092C78.4984 27.092 77.8082 26.9624 77.1771 26.7031C76.5519 26.4383 76.008 26.0552 75.5461 25.5539C75.0898 25.0468 74.7348 24.4327 74.4813 23.7116C74.2334 22.9847 74.1094 22.1622 74.1094 21.2439V20.2889C74.1094 19.3706 74.2165 18.5508 74.4305 17.8296C74.6503 17.1085 74.9715 16.4972 75.394 15.9958C75.8165 15.4887 76.335 15.1056 76.949 14.8464C77.563 14.5816 78.2673 14.4492 79.0617 14.4492C80.0026 14.4492 80.7886 14.6126 81.4196 14.9394C82.0563 15.2605 82.5521 15.7056 82.9069 16.2746C83.2675 16.8437 83.4986 17.4916 83.6 18.2184H81.9688C81.8957 17.7733 81.7492 17.3676 81.5294 17.0014C81.3153 16.6352 81.0082 16.3423 80.6082 16.1225C80.2082 15.8972 79.6928 15.7845 79.0617 15.7845C78.4926 15.7845 77.9998 15.8887 77.5828 16.0972C77.1659 16.3056 76.8223 16.6042 76.5519 16.993C76.2813 17.3817 76.0786 17.8522 75.9432 18.4043C75.8138 18.9564 75.749 19.5791 75.749 20.272V21.2439C75.749 21.9537 75.8307 22.5875 75.994 23.1452C76.163 23.7031 76.4025 24.1791 76.7123 24.5735C77.0223 24.9624 77.3913 25.2581 77.8194 25.4608C78.2532 25.6637 78.7321 25.765 79.2561 25.765C79.8365 25.765 80.3069 25.7172 80.6675 25.6214C81.028 25.52 81.3098 25.4018 81.5125 25.2666C81.7153 25.1256 81.8703 24.9933 81.9773 24.8693V22.1143H79.1294V20.796H83.6ZM93.6023 25.5962V26.9229H87.0865V25.5962H93.6023ZM87.4161 14.6182V26.9229H85.785V14.6182H87.4161ZM92.7401 19.9085V21.2354H87.0865V19.9085H92.7401ZM93.5176 14.6182V15.9535H87.0865V14.6182H93.5176ZM99.8184 14.6182V26.9229H98.2128V14.6182H99.8184ZM103.774 14.6182V15.9535H94.2661V14.6182H103.774ZM110.265 14.6182V26.9229H108.634V14.6182H110.265ZM117.005 14.6182V26.9229H115.399V14.6182H117.005ZM120.96 14.6182V15.9535H111.453V14.6182H120.96ZM135.176 20.3818V21.1593C135.176 22.0833 135.06 22.9116 134.829 23.6439C134.598 24.3764 134.266 24.9989 133.832 25.5116C133.398 26.0243 132.877 26.4158 132.269 26.6864C131.666 26.9568 130.99 27.092 130.241 27.092C129.514 27.092 128.846 26.9568 128.238 26.6864C127.635 26.4158 127.111 26.0243 126.666 25.5116C126.226 24.9989 125.885 24.3764 125.643 23.6439C125.401 22.9116 125.28 22.0833 125.28 21.1593V20.3818C125.28 19.4579 125.398 18.6325 125.635 17.9057C125.877 17.1733 126.218 16.5507 126.657 16.038C127.097 15.5197 127.618 15.1253 128.221 14.8549C128.829 14.5844 129.497 14.4492 130.224 14.4492C130.973 14.4492 131.649 14.5844 132.252 14.8549C132.86 15.1253 133.381 15.5197 133.815 16.038C134.255 16.5507 134.59 17.1733 134.821 17.9057C135.057 18.6325 135.176 19.4579 135.176 20.3818ZM133.562 21.1593V20.3649C133.562 19.6325 133.486 18.9846 133.334 18.4212C133.187 17.8578 132.97 17.3845 132.683 17.0014C132.396 16.6183 132.043 16.3282 131.626 16.131C131.215 15.9338 130.747 15.8352 130.224 15.8352C129.716 15.8352 129.257 15.9338 128.846 16.131C128.44 16.3282 128.091 16.6183 127.798 17.0014C127.511 17.3845 127.288 17.8578 127.131 18.4212C126.973 18.9846 126.894 19.6325 126.894 20.3649V21.1593C126.894 21.8974 126.973 22.551 127.131 23.12C127.288 23.6833 127.514 24.1595 127.806 24.5481C128.105 24.9314 128.457 25.2214 128.863 25.4187C129.274 25.6158 129.733 25.7145 130.241 25.7145C130.77 25.7145 131.241 25.6158 131.652 25.4187C132.063 25.2214 132.41 24.9314 132.691 24.5481C132.979 24.1595 133.196 23.6833 133.342 23.12C133.488 22.551 133.562 21.8974 133.562 21.1593ZM146.564 14.6182V26.9229H144.925L138.73 17.4324V26.9229H137.099V14.6182H138.73L144.95 24.1341V14.6182H146.564Z" fill="white"/>
<path d="M238.461 0.960938H11.5379C5.69639 0.960938 0.960938 5.69639 0.960938 11.5379V65.384C0.960938 71.2255 5.69639 75.9609 11.5379 75.9609H238.461C244.302 75.9609 249.038 71.2255 249.038 65.384V11.5379C249.038 5.69639 244.302 0.960938 238.461 0.960938Z" stroke="#A6A6A6"/>
</g>
<defs>
<linearGradient id="paint0_linear_660_2428" x1="57.8606" y1="38.462" x2="42.0898" y2="38.462" gradientUnits="userSpaceOnUse">
<stop stop-color="#FFBC00"/>
<stop offset="1" stop-color="#FFDA03"/>
</linearGradient>
<linearGradient id="paint1_linear_660_2428" x1="45.7977" y1="46.0971" x2="25.214" y2="63.0634" gradientUnits="userSpaceOnUse">
<stop stop-color="#E22652"/>
<stop offset="1" stop-color="#FF3A44"/>
</linearGradient>
<linearGradient id="paint2_linear_660_2428" x1="21.7707" y1="17.3961" x2="35.4944" y2="29.4633" gradientUnits="userSpaceOnUse">
<stop stop-color="#0ED574"/>
<stop offset="1" stop-color="#07F076"/>
</linearGradient>
<clipPath id="clip0_660_2428">
<rect width="250" height="76.9231" fill="white"/>
</clipPath>
</defs>
</svg>
