<svg width="137" height="32" viewBox="0 0 137 32" fill="none" xmlns="http://www.w3.org/2000/svg">
<path d="M6.04 4.864V21.472H12.728L12.6 19.232C12.5787 18.912 12.728 18.752 13.048 18.752H14.84C15.16 18.752 15.32 18.912 15.32 19.232V25.536C15.32 25.856 15.16 26.016 14.84 26.016H13.048C12.728 26.016 12.5787 25.856 12.6 25.536L12.696 24H0.76C0.44 24 0.28 23.84 0.28 23.52V21.952C0.28 21.632 0.44 21.472 0.76 21.472H2.456V4.864H0.76C0.44 4.864 0.28 4.704 0.28 4.384V2.752C0.28 2.432 0.44 2.272 0.76 2.272H8.376C8.696 2.272 8.856 2.432 8.856 2.752V4.384C8.856 4.704 8.696 4.864 8.376 4.864H6.04ZM30.8995 21.472H32.3075C32.6275 21.472 32.7875 21.632 32.7875 21.952V23.52C32.7875 23.84 32.6275 24 32.3075 24H28.7235C28.4675 24 28.3075 23.84 28.2435 23.52L27.9555 21.728C26.5902 23.4987 24.7982 24.384 22.5795 24.384C19.1235 24.384 17.3955 22.5707 17.3955 18.944V10.784H15.6995C15.3795 10.784 15.2195 10.624 15.2195 10.304V8.64C15.2195 8.32 15.3795 8.16 15.6995 8.16H20.4995C20.8195 8.16 20.9795 8.32 20.9795 8.64V17.984C20.9795 19.264 21.1395 20.1813 21.4595 20.736C21.8008 21.2693 22.5048 21.536 23.5715 21.536C24.6595 21.536 25.5555 21.216 26.2595 20.576C26.9635 19.936 27.3155 19.2107 27.3155 18.4V10.784H25.2995C24.9795 10.784 24.8195 10.624 24.8195 10.304V8.64C24.8195 8.32 24.9795 8.16 25.2995 8.16H30.4195C30.7395 8.16 30.8995 8.32 30.8995 8.64V21.472ZM33.9278 10.336V8.64C33.9278 8.32 34.0878 8.16 34.4078 8.16H38.7598C39.0371 8.16 39.2078 8.32 39.2718 8.64L39.5598 10.496C40.7544 8.704 42.4611 7.808 44.6798 7.808C47.9864 7.808 49.6398 9.62133 49.6398 13.248V21.472H51.4958C51.8158 21.472 51.9758 21.632 51.9758 21.952V23.52C51.9758 23.84 51.8158 24 51.4958 24H44.5198C44.1998 24 44.0398 23.84 44.0398 23.52V21.952C44.0398 21.632 44.1998 21.472 44.5198 21.472H46.0558V14.848C46.0558 13.504 45.8851 12.5227 45.5438 11.904C45.2024 11.2853 44.4984 10.976 43.4318 10.976C42.3651 10.976 41.4798 11.296 40.7758 11.936C40.0718 12.576 39.7198 13.3013 39.7198 14.112V21.472H41.7038C42.0238 21.472 42.1838 21.632 42.1838 21.952V23.52C42.1838 23.84 42.0238 24 41.7038 24H34.4398C34.1198 24 33.9598 23.84 33.9598 23.52V21.952C33.9598 21.632 34.1198 21.472 34.4398 21.472H36.1358V10.784H34.4078C34.0878 10.784 33.9278 10.6347 33.9278 10.336ZM62.3282 14.496V13.376C62.3282 11.8613 61.9016 10.912 61.0482 10.528C60.6429 10.3573 60.0562 10.272 59.2882 10.272C57.8376 10.272 56.9629 10.9547 56.6642 12.32C56.6002 12.64 56.4402 12.8 56.1842 12.8H54.1362C53.7949 12.8 53.6456 12.64 53.6882 12.32C53.7736 10.7627 54.4029 9.62133 55.5762 8.896C56.7496 8.17067 58.2429 7.808 60.0562 7.808C63.8749 7.808 65.7842 9.55733 65.7842 13.056V21.472H67.1602C67.4802 21.472 67.6402 21.632 67.6402 21.952V23.52C67.6402 23.84 67.4802 24 67.1602 24H63.3842C63.1069 24 62.9469 23.84 62.9042 23.52L62.6802 22.048C61.5282 23.6053 59.8642 24.384 57.6882 24.384C56.3229 24.384 55.1922 24.032 54.2962 23.328C53.4002 22.6027 52.9522 21.4507 52.9522 19.872C52.9522 17.8027 53.8162 16.384 55.5442 15.616C56.9736 14.9547 58.6802 14.592 60.6642 14.528C61.0696 14.528 61.6242 14.5173 62.3282 14.496ZM62.3922 19.168V16.704C60.3442 16.704 59.0856 16.8 58.6162 16.992C58.1469 17.184 57.7309 17.376 57.3682 17.568C56.6856 17.9307 56.3442 18.592 56.3442 19.552C56.3442 21.024 57.1869 21.76 58.8722 21.76C59.9816 21.76 60.8456 21.504 61.4642 20.992C62.0829 20.4587 62.3922 19.8507 62.3922 19.168ZM72.7735 15.872C72.7735 19.7547 74.2775 21.696 77.2855 21.696C78.2455 21.696 79.3655 21.408 80.6455 20.832C80.9655 20.704 81.1895 20.8 81.3175 21.12L81.8935 22.528C82.0002 22.8267 81.9148 23.0507 81.6375 23.2C80.3362 23.9893 78.6935 24.384 76.7095 24.384C74.1282 24.384 72.2188 23.6587 70.9815 22.208C69.7442 20.736 69.1255 18.752 69.1255 16.256C69.1255 13.7387 69.7548 11.7013 71.0135 10.144C72.2935 8.58667 74.1922 7.808 76.7095 7.808C78.6295 7.808 80.0482 8.33067 80.9655 9.376C81.8828 10.4213 82.3415 11.7547 82.3415 13.376C82.3415 13.6533 82.1602 13.792 81.7975 13.792H79.8775C79.5362 13.792 79.3548 13.632 79.3335 13.312C79.2268 11.4347 78.2775 10.496 76.4855 10.496C75.2055 10.496 74.2668 10.944 73.6695 11.84C73.0722 12.7147 72.7735 14.0587 72.7735 15.872ZM87.6462 8.608L91.3902 20.256L94.7182 10.784H93.0862C92.7662 10.784 92.6062 10.624 92.6062 10.304V8.64C92.6062 8.32 92.7662 8.16 93.0862 8.16H97.7583C98.0143 8.16 98.1849 8.23467 98.2702 8.384C98.3556 8.53333 98.3983 8.672 98.3983 8.8C98.3983 8.90667 98.3769 9.01333 98.3342 9.12L91.4862 27.008C91.1662 27.8187 90.8889 28.4373 90.6542 28.864C90.4409 29.312 90.1316 29.7813 89.7262 30.272C88.9369 31.2107 87.7742 31.68 86.2382 31.68C84.7022 31.68 83.4436 31.4453 82.4622 30.976C82.2916 30.8907 82.2062 30.784 82.2062 30.656C82.2062 30.528 82.2169 30.432 82.2382 30.368L82.7822 28.8C82.8676 28.5227 83.0702 28.4267 83.3902 28.512C84.4142 28.8533 85.2462 29.024 85.8862 29.024C86.5476 29.024 87.0489 28.8533 87.3902 28.512C87.7529 28.192 88.1262 27.5093 88.5102 26.464L89.3102 24.352L84.4462 10.784H82.8462C82.5262 10.784 82.3662 10.624 82.3662 10.304V8.64C82.3662 8.32 82.5262 8.16 82.8462 8.16H87.0382C87.3582 8.16 87.5609 8.30933 87.6462 8.608ZM103.12 15.872C103.12 19.7547 104.624 21.696 107.632 21.696C108.592 21.696 109.712 21.408 110.992 20.832C111.312 20.704 111.536 20.8 111.664 21.12L112.24 22.528C112.347 22.8267 112.261 23.0507 111.984 23.2C110.683 23.9893 109.04 24.384 107.056 24.384C104.475 24.384 102.565 23.6587 101.328 22.208C100.091 20.736 99.472 18.752 99.472 16.256C99.472 13.7387 100.101 11.7013 101.36 10.144C102.64 8.58667 104.539 7.808 107.056 7.808C108.976 7.808 110.395 8.33067 111.312 9.376C112.229 10.4213 112.688 11.7547 112.688 13.376C112.688 13.6533 112.507 13.792 112.144 13.792H110.224C109.883 13.792 109.701 13.632 109.68 13.312C109.573 11.4347 108.624 10.496 106.832 10.496C105.552 10.496 104.613 10.944 104.016 11.84C103.419 12.7147 103.12 14.0587 103.12 15.872ZM119.305 0.608V21.472H121.321C121.641 21.472 121.801 21.632 121.801 21.952V23.52C121.801 23.84 121.641 24 121.321 24H113.705C113.385 24 113.225 23.84 113.225 23.52V21.952C113.225 21.632 113.385 21.472 113.705 21.472H115.721V2.752H113.993C113.673 2.752 113.513 2.592 113.513 2.272V0.608C113.513 0.287999 113.673 0.127998 113.993 0.127998H118.825C119.145 0.127998 119.305 0.287999 119.305 0.608ZM129.991 24.384C127.452 24.384 125.586 23.648 124.391 22.176C123.218 20.6827 122.631 18.72 122.631 16.288C122.631 13.8347 123.26 11.808 124.519 10.208C125.778 8.608 127.591 7.808 129.959 7.808C131.132 7.808 132.135 8.032 132.967 8.48C133.82 8.90667 134.471 9.49333 134.919 10.24C135.772 11.6907 136.199 13.3653 136.199 15.264C136.199 16.16 136.156 16.6507 136.071 16.736C135.986 16.8213 135.826 16.864 135.591 16.864H126.183C126.29 18.4 126.663 19.5947 127.303 20.448C127.964 21.28 129.095 21.696 130.695 21.696C131.868 21.696 133.074 21.4187 134.311 20.864C134.61 20.7147 134.823 20.8 134.951 21.12L135.559 22.592C135.666 22.848 135.57 23.0613 135.271 23.232C133.863 24 132.103 24.384 129.991 24.384ZM126.183 14.496H132.839C132.882 11.8293 131.836 10.496 129.703 10.496C128.444 10.496 127.548 10.9013 127.015 11.712C126.503 12.5013 126.226 13.4293 126.183 14.496Z" fill="black"/>
</svg>
